# xmcd
# Copyright (C) 1995-1998 Ti Kan
#
# Track frame offsets:
#       150
#       13492
#       25635
#       37685
#       51124
#       65542
#       75603
#       88005
#       99304
#       112393
#       125729
#       138546
#       150027
#       162760
#       173264
#
# Disc length: 2501 seconds
#
# Revision: 0
# Processed by: cddbd v1.5.2PL0 Copyright (c) Steve Scherf et al.
# Submitted via: CD-Import v1.0
#
DISCID=b209c30f
DTITLE=Nat King Cole - Selected Singles 1949-56
DYEAR=1949
DGENRE=
TTITLE0=My Mother Told Me
TTITLE1=Exactly Like You
TTITLE2=Walkin` My Baby Back Home 
TTITLE3=Funny (Not Much)
TTITLE4=Because You`re Mine
TTITLE5=I`m Never Satisfied
TTITLE6=Pretend
TTITLE7=Don`t Let You`re Eyes Go Shopping (For Your Heart)
TTITLE8=Smile
TTITLE9=Make Her Mine
TTITLE10=Darling Je Vous Aime Beaucoup
TTITLE11=The Sand And The Sea
TTITLE12=Night Lights
TTITLE13=To The Ends Of The Earth
TTITLE14=Unforgetable
EXTD=
EXTT0=
EXTT1=
EXTT2=
EXTT3=
EXTT4=
EXTT5=
EXTT6=
EXTT7=
EXTT8=
EXTT9=
EXTT10=
EXTT11=
EXTT12=
EXTT13=
EXTT14=
PLAYORDER=
